PathFileType	4	(X/Y/Z)	Run_300 01
DataRate	CameraRate	NumFrames	NumMarkers	Units	OrigDataRate	OrigDataStartFrame	OrigNumFrames
100	100	4	42	mm	100	205	128
Frame#	Time	LASI			RASI			LPSI			RPSI			RTH1			RTH2			RTH3			LTH1			LTH2			LTH3			RTB1			RTB2			RTB3			LTB1			LTB2			LTB3			RCAL			RTOE			RMT5			LCAL			LTOE			LACR			RACR			CLAV			C7			RUA1			RUA2			RUA3			RLEL			RMEL			LUA1			LUA2			LUA3			LLEL			LMEL			RFAsuperior			RFAradius			RFAulna			LFAsuperior			LFAradius			LFAulna			LMT5		
		X1	Y1	Z1	X2	Y2	Z2	X3	Y3	Z3	X4	Y4	Z4	X5	Y5	Z5	X6	Y6	Z6	X7	Y7	Z7	X8	Y8	Z8	X9	Y9	Z9	X10	Y10	Z10	X11	Y11	Z11	X12	Y12	Z12	X13	Y13	Z13	X14	Y14	Z14	X15	Y15	Z15	X16	Y16	Z16	X17	Y17	Z17	X18	Y18	Z18	X19	Y19	Z19	X20	Y20	Z20	X21	Y21	Z21	X22	Y22	Z22	X23	Y23	Z23	X24	Y24	Z24	X25	Y25	Z25	X26	Y26	Z26	X27	Y27	Z27	X28	Y28	Z28	X29	Y29	Z29	X30	Y30	Z30	X31	Y31	Z31	X32	Y32	Z32	X33	Y33	Z33	X34	Y34	Z34	X35	Y35	Z35	X36	Y36	Z36	X37	Y37	Z37	X38	Y38	Z38	X39	Y39	Z39	X40	Y40	Z40	X41	Y41	Z41	X42	Y42	Z42	

205	  2.050000	709.370021	1036.661567	-466.225097	712.130942	1016.396787	-212.761741	529.160462	1124.522378	-372.898071	538.646396	1119.509611	-287.970645	614.280386	893.587350	-162.126181	618.236778	749.812513	-187.804533	506.271357	676.655170	-201.153819	657.147742	940.593110	-528.460893	765.810559	856.571669	-507.072209	739.259338	700.937765	-496.340324	428.939908	435.655544	-262.872512	326.535546	390.858526	-214.579952	285.310334	294.716693	-273.323018	830.112988	484.390220	-438.408415	768.259964	408.780236	-503.609381	799.675615	280.204111	-427.863095	116.006354	303.818429	-307.723344	225.054554	 98.157643	-293.609347	170.184044	103.955976	-219.234820	667.552373	138.324970	-409.186299	897.730176	125.127484	-406.197222	672.971401	1579.246468	-503.662665	706.689563	1550.384497	-177.093498	759.703922	1514.282799	-331.717518	628.189328	1593.645535	-353.216011	657.602237	1441.023246	-91.527350	576.551149	1372.036534	-105.747937	621.836099	1329.523434	-59.906503	609.196982	1234.099900	-37.386638	566.436978	1217.055384	-107.523564	582.640356	1525.916383	-596.698091	496.573494	1478.169281	-579.914521	511.469162	1443.853122	-652.492710	467.968729	1371.746024	-694.699558	413.217594	1362.902369	-637.984992	674.452470	1189.041809	-57.146736	844.155443	1169.963936	-173.358312	819.890393	1106.960191	-145.220437	527.429556	1263.842186	-667.158118	624.379920	1187.678988	-566.067333	575.798088	1147.721877	-589.928170	869.050429	 81.170387	-481.227897	
206	  2.060000	709.838762	1036.713229	-466.368099	713.722020	1018.106057	-215.115167	529.763503	1124.503750	-372.666714	540.622998	1120.358751	-287.651633	617.248543	893.810891	-162.978090	622.133763	749.571014	-189.477463	510.804561	675.831169	-201.147180	655.660240	937.875589	-529.181524	763.222314	851.389331	-508.073921	732.783891	696.241858	-496.904634	427.641287	436.838417	-262.464232	323.035425	397.128102	-214.329678	276.716612	303.627501	-273.290446	828.229818	480.900610	-438.166144	771.470666	401.944876	-503.680380	811.435069	275.363480	-428.219484	106.074264	319.775925	-304.666856	209.558695	111.227291	-296.320970	156.031038	116.793447	-220.348554	688.672800	125.954164	-409.057916	919.007567	125.953675	-405.285149	672.706236	1577.616001	-506.464087	707.458428	1551.092941	-179.639993	760.143713	1514.549497	-334.223236	628.633285	1593.349749	-355.806481	657.667052	1442.631741	-93.640289	576.230741	1373.941843	-107.765874	621.066259	1331.573894	-61.239524	608.039974	1235.992198	-38.540455	564.789553	1219.152964	-108.335143	582.354219	1523.528525	-599.317757	496.560673	1475.616936	-581.997360	511.401257	1440.595360	-654.366622	468.071012	1367.849136	-695.695800	413.758578	1358.837552	-638.944272	672.547643	1189.973065	-58.239923	840.845467	1166.650362	-176.496192	816.811130	1105.261579	-146.332408	529.161658	1261.092760	-668.047958	627.677465	1186.956653	-566.896471	579.448675	1146.150922	-590.116009	893.397077	 78.273971	-479.292431	
207	  2.070000	709.496733	1035.157448	-466.694431	715.099774	1018.775142	-217.787286	529.555589	1122.876547	-372.618473	541.360647	1120.008166	-287.478183	620.722624	892.680774	-164.132859	627.182828	748.021152	-191.286087	517.085511	672.998107	-201.504279	654.635734	934.557559	-529.874448	759.884830	845.125485	-509.233132	726.224294	690.730075	-497.272316	428.517578	436.419389	-262.483764	321.955546	402.349705	-214.299823	269.992211	312.327065	-273.627969	825.859687	477.278964	-437.691097	772.245928	396.218453	-503.038147	819.047736	271.434572	-428.194522	 98.562074	336.551460	-301.857984	195.226679	124.730421	-298.752468	143.279087	130.834952	-221.033143	703.279110	117.058481	-407.417457	933.179012	125.953967	-405.560805	672.621433	1574.742950	-509.395902	707.959568	1550.562581	-182.152320	760.505214	1513.661457	-336.543032	629.069029	1591.906328	-358.382854	657.525764	1443.245775	-95.427421	575.582929	1374.821747	-109.711840	619.972076	1332.309065	-62.799917	606.290247	1236.714063	-39.721446	562.686640	1220.153283	-109.335125	582.494371	1519.637835	-602.110490	496.915344	1471.050991	-584.402799	512.049637	1435.706588	-656.652629	469.408870	1362.157910	-697.309223	415.373266	1352.793998	-640.729292	669.948034	1189.335371	-59.120876	837.351265	1160.789637	-178.393245	812.867144	1101.301535	-146.703232	532.149983	1256.617330	-669.218178	631.957099	1184.784477	-567.742938	584.320879	1142.971911	-590.385616	908.859814	 76.060041	-478.612907	
208	  2.080000	708.704125	1032.182927	-467.435118	716.108932	1018.274958	-220.484208	528.896865	1119.830359	-372.984860	540.656809	1118.329701	-287.579440	624.778133	890.073194	-165.395926	633.131670	745.213746	-192.991996	524.877997	668.311348	-202.290070	653.805451	930.615078	-530.593983	756.101215	838.102023	-510.725491	720.379853	684.970564	-497.709379	431.528454	434.652310	-262.864702	323.427056	406.610817	-214.437947	265.601805	320.796357	-274.042754	823.132906	473.421371	-437.374294	770.677328	391.099174	-501.820773	822.620411	267.731357	-427.914890	 94.817987	354.199942	-300.202139	182.727156	138.328253	-299.541086	131.310917	146.356759	-220.550799	711.209652	110.747465	-404.367255	940.608435	123.636962	-406.810907	672.783531	1570.638290	-512.511241	708.040160	1548.759939	-184.603323	760.801266	1511.595092	-338.693778	629.446937	1589.394177	-360.949487	657.109288	1442.551002	-97.055343	574.525267	1374.565085	-111.529440	618.602661	1331.575212	-64.590999	603.946753	1236.235421	-40.919131	560.147176	1219.995862	-110.532776	583.115781	1514.215211	-605.100334	497.739419	1464.608515	-587.206918	513.484684	1429.184502	-659.327126	472.026076	1354.784640	-699.902466	418.072734	1344.876314	-643.269755	666.595445	1187.160099	-59.786780	833.581818	1153.033772	-178.791156	807.770557	1095.022571	-146.316945	536.389952	1250.508748	-670.672047	637.159599	1181.195944	-568.542974	590.363869	1138.259244	-590.775463	915.281372	 73.622015	-479.334538	
